<svg xmlns="http://www.w3.org/2000/svg" viewBox="0 0 24.6 21">
<symbol xmlns="http://www.w3.org/2000/svg" id="a" viewBox="0 0 24.6 21">
<path d="M18.9 19.5a4.2 4.2 0 0 1-4.14-3.6H23a4.2 4.2 0 0 1-4.1 3.6m-.1-11.85.05-.07V7.5v.08l.06.07c1.43 1.77 3.61 5 4 7h-8.13c.41-1.96 2.59-5.23 4.02-7m1.13-.76a1.19 1.19 0 0 0-2.06 0s-4.37 5.38-4.37 8.41a5.4 5.4 0 0 0 10.8 0c0-3.03-4.37-8.41-4.37-8.41M5.7 17.1a4.2 4.2 0 0 1-4.14-3.6h8.28a4.2 4.2 0 0 1-4.14 3.6M5.6 5.25l.05-.07V5.1v.08l.06.07c1.43 1.77 3.61 5 4 7.05H1.58C2 10.29 4.17 7 5.6 5.25m1.13-.76a1.19 1.19 0 0 0-2.06 0S.3 9.87.3 12.9a5.4 5.4 0 0 0 10.8 0c0-3.03-4.37-8.41-4.37-8.41M13.5 1.5a1.2 1.2 0 0 0-2.4 0H2.7v1.2h8.4a1.2 1.2 0 0 0 2.4 0h8.4V1.5z" fill="white" />
<path d="M18.9 21a5.71 5.71 0 0 1-5.7-5.7c0-3.1 4.26-8.37 4.44-8.6A1.45 1.45 0 0 1 18.9 6a1.49 1.49 0 0 1 1.28.72c.32.4 4.42 5.54 4.42 8.58a5.71 5.71 0 0 1-5.7 5.7m0-14.4a.89.89 0 0 0-.77.44c-.07.09-4.33 5.38-4.33 8.26a5.1 5.1 0 1 0 10.2 0c0-2.89-4.26-8.17-4.3-8.22a.89.89 0 0 0-.8-.48m0 13.2a4.52 4.52 0 0 1-4.44-3.86l-.05-.34h9l-.05.34a4.52 4.52 0 0 1-4.46 3.86m-3.78-3.6a3.88 3.88 0 0 0 7.56 0zm8.26-1.2h-9l.07-.36c.42-2.1 2.66-5.43 4.07-7.17l.34-.55.33.54c1.41 1.74 3.66 5.08 4.08 7.18zm-8.21-.6h7.46A23.4 23.4 0 0 0 18.9 8a23.1 23.1 0 0 0-3.73 6.4M5.7 18.6A5.71 5.71 0 0 1 0 12.9c0-3.1 4.25-8.37 4.44-8.6a1.45 1.45 0 0 1 1.26-.7 1.49 1.49 0 0 1 1.3.72c.32.4 4.42 5.54 4.42 8.58a5.71 5.71 0 0 1-5.72 5.7m0-14.4a.89.89 0 0 0-.77.44C4.86 4.73.6 10 .6 12.9a5.1 5.1 0 0 0 10.2 0c0-2.89-4.26-8.17-4.3-8.22a.89.89 0 0 0-.8-.48m0 13.2a4.52 4.52 0 0 1-4.44-3.86l-.05-.34h9v.34A4.52 4.52 0 0 1 5.7 17.4m-3.78-3.6a3.92 3.92 0 0 0 3.78 3 3.92 3.92 0 0 0 3.78-3zm8.26-1.2h-9l.07-.36c.46-2.1 2.75-5.43 4.11-7.17L5.44 5l.26-.44.3.5c1.41 1.74 3.66 5.08 4.08 7.18zM2 12h7.43A23.1 23.1 0 0 0 5.7 5.61 23.1 23.1 0 0 0 2 12m10.3-7.8A1.51 1.51 0 0 1 10.83 3H2.4V1.2h8.43a1.5 1.5 0 0 1 2.94 0h8.43V3h-8.43a1.51 1.51 0 0 1-1.47 1.2M3 2.4h8.4v.3a.9.9 0 1 0 1.8 0v-.3h8.4v-.6h-8.4v-.3a.9.9 0 1 0-1.8 0v.3H3z" fill="white"/>
</symbol>
<use href="#a"/>
</svg>