<svg xmlns="http://www.w3.org/2000/svg" viewBox="0 0 26 24">
<symbol xmlns="http://www.w3.org/2000/svg" id="a" viewBox="0 0 26 24">
<path
fill="none"
stroke="white"
stroke-width="1.5"
d="M12.953 0a.743.743 0 0 1 .8.75v.8A7.49 7.49 0 0 1 20.5 9v1.359a7.82 7.82 0 0 0 2.25 5.485l.141.094a2.04 2.04 0 0 1 .609 1.5 2.08 2.08 0 0 1-2.062 2.062H4.563a1.9 1.9 0 0 1-1.454-.609 1.89 1.89 0 0 1-.609-1.453 2.04 2.04 0 0 1 .609-1.5l.141-.094a7.82 7.82 0 0 0 2.25-5.485V9a7.49 7.49 0 0 1 6.75-7.453L12.2.75a.76.76 0 0 1 .753-.75M8.734 4.734A6.24 6.24 0 0 0 6.953 9v1.359a9.22 9.22 0 0 1-2.672 6.516l-.093.141a.8.8 0 0 0-.235.422.623.623 0 0 0 .61.562h16.875a.56.56 0 0 0 .562-.562.59.59 0 0 0-.187-.422l-.094-.141A9.14 9.14 0 0 1 19 10.359V9a6 6 0 0 0-6.047-6 5.89 5.89 0 0 0-4.219 1.734m5.672 16.782a.75.75 0 0 1 .985-.469.71.71 0 0 1 .422.937 3.14 3.14 0 0 1-1.079 1.454 2.9 2.9 0 0 1-1.781.562 2.6 2.6 0 0 1-1.687-.562 3.13 3.13 0 0 1-1.078-1.454.71.71 0 0 1 .421-.937.75.75 0 0 1 .985.469 1.44 1.44 0 0 0 1.359.984 1.5 1.5 0 0 0 1.453-.984"
/>
</symbol>
<use href="#a" />
</svg>