<svg xmlns="http://www.w3.org/2000/svg" viewBox="0 0 11 11"><symbol xmlns="http://www.w3.org/2000/svg" id="a" viewBox="0 0 11 11"><path fill="#797878" d="M10.866 10.218 7.737 7.089c.606-.748.971-1.7.971-2.735A4.36 4.36 0 0 0 4.354 0 4.36 4.36 0 0 0 0 4.354a4.36 4.36 0 0 0 4.354 4.354 4.33 4.33 0 0 0 2.735-.97l3.128 3.128a.457.457 0 0 0 .649 0 .46.46 0 0 0 0-.649M4.354 7.791A3.44 3.44 0 0 1 .917 4.354 3.44 3.44 0 0 1 4.354.917a3.44 3.44 0 0 1 3.438 3.437 3.44 3.44 0 0 1-3.438 3.438"/></symbol><use href="#a"/></svg>