<svg xmlns="http://www.w3.org/2000/svg" width="28" height="28" class="b24-crm-button-icon" viewBox="0 0 24 28"><path fill="#fff" fill-rule="evenodd" d="M22.407 0H1.306C.586 0 0 .586 0 1.306v21.1c0 .72.586 1.306 1.306 1.306h21.1c.72 0 1.306-.586 1.306-1.305V1.297A1.317 1.317 0 0 0 22.407 0m-9.094 18.046a.74.74 0 0 1-.738.737H3.9a.74.74 0 0 1-.737-.737v-1.634c0-.408.337-.737.737-.737h8.676c.409 0 .738.337.738.737zm7.246-5.79a.74.74 0 0 1-.737.737H3.89a.74.74 0 0 1-.737-.737v-1.634c0-.409.337-.737.737-.737h15.923c.409 0 .738.337.738.737v1.634zm0-5.8a.74.74 0 0 1-.737.738H3.89a.74.74 0 0 1-.737-.738V4.822c0-.408.337-.737.737-.737h15.923c.409 0 .738.338.738.737v1.634z" class="b24-crm-button-webform-icon"/></svg>